Coordinates
version=1
nRows=11
nColumns=63
inDegrees=yes

Units are S.I. units (second, meters, Newtons, ...)
If the header above contains a line with 'inDegrees', this indicates whether rotational values are in degrees (yes) or radians (no).

endheader
time	pelvis_tilt	pelvis_list	pelvis_rotation	pelvis_tx	pelvis_ty	pelvis_tz	hip_flexion_r	hip_adduction_r	hip_rotation_r	knee_angle_r	knee_angle_r_beta	ankle_angle_r	subtalar_angle_r	mtp_angle_r	hip_flexion_l	hip_adduction_l	hip_rotation_l	knee_angle_l	knee_angle_l_beta	ankle_angle_l	subtalar_angle_l	mtp_angle_l	L5_S1_Flex_Ext	L5_S1_Lat_Bending	L5_S1_axial_rotation	L4_L5_Flex_Ext	L4_L5_Lat_Bending	L4_L5_axial_rotation	L3_L4_Flex_Ext	L3_L4_Lat_Bending	L3_L4_axial_rotation	L2_L3_Flex_Ext	L2_L3_Lat_Bending	L2_L3_axial_rotation	L1_L2_Flex_Ext	L1_L2_Lat_Bending	L1_L2_axial_rotation	L1_T12_Flex_Ext	L1_T12_Lat_Bending	L1_T12_axial_rotation	Abs_r3	Abs_r2	Abs_r1	Abs_t1	Abs_t2	neck_flexion	neck_bending	neck_rotation	arm_flex_r	arm_add_r	arm_rot_r	elbow_flex_r	pro_sup_r	wrist_flex_r	wrist_dev_r	arm_flex_l	arm_add_l	arm_rot_l	elbow_flex_l	pro_sup_l	wrist_flex_l	wrist_dev_l
6.915254	6.265386	14.862036	136.734872	0.120961	0.514250	1.063870	0.459868	12.789751	-41.471086	20.827476	0.363508	52.906078	12.343167	0.000000	2.252168	-11.727572	24.476090	22.697969	0.396154	52.366230	15.931592	0.000000	-1.051166	1.733137	1.418676	-1.952121	2.305073	1.507344	-1.726961	4.213950	1.507344	-1.201378	4.213950	1.241342	-0.976113	3.534214	1.152675	-0.600636	2.684630	1.064007	-7.508376	19.605596	7.890253	0.000000	0.000000	5.301656	-1.955249	-21.377570	-219.597834	-162.025186	-145.988119	49.299278	85.081875	-1.132283	-0.774117	4.665608	-18.532951	128.859307	0.293454	0.642615	-3.407472	-24.287475
6.932203	6.020026	14.978612	135.107330	0.121907	0.514883	1.059319	-0.215989	12.890650	-39.479333	20.783194	0.362735	52.878040	11.640756	0.000000	0.873779	-11.911336	22.738819	21.911500	0.382428	52.295697	16.045414	0.000000	-1.088931	1.674001	1.612545	-2.022255	2.226421	1.713329	-1.789005	4.070166	1.713329	-1.244540	4.070166	1.410977	-1.011182	3.413623	1.310193	-0.622215	2.593028	1.209409	-7.778128	18.936635	8.968493	0.000000	0.000000	4.901038	-0.756616	-21.160749	-219.612316	-160.670415	-144.958825	48.596105	84.498005	-0.545231	-1.452453	3.206916	-19.637434	128.953779	0.293497	0.622467	-2.619625	-24.257752
6.949153	5.798298	15.065757	133.486920	0.122920	0.515531	1.054706	-0.877299	12.965650	-37.519913	20.729411	0.361796	52.844597	10.936136	0.000000	-0.518994	-12.062750	21.006461	21.071846	0.367773	52.158646	16.100776	0.000000	-1.118390	1.612035	1.803817	-2.076961	2.144007	1.916555	-1.837402	3.919502	1.916555	-1.278208	3.919502	1.578340	-1.038537	3.287262	1.465601	-0.639048	2.497042	1.352863	-7.988546	18.235663	10.032288	0.000000	0.000000	4.452846	0.569287	-20.902790	-219.624071	-159.007990	-144.030697	48.060655	84.087664	0.187476	-1.617812	1.850120	-20.628212	129.942633	0.292039	0.650653	-2.984407	-24.213785
6.966102	5.581268	15.098010	131.875864	0.124066	0.516193	1.050096	-1.490695	12.984926	-35.580275	20.688530	0.361083	52.811946	10.219439	0.000000	-1.887165	-12.151364	19.270956	20.198158	0.352524	51.960990	16.122178	0.000000	-1.140140	1.544008	1.992122	-2.117354	2.053530	2.116629	-1.873136	3.754101	2.116629	-1.303066	3.754101	1.743107	-1.058734	3.148541	1.618599	-0.651476	2.391668	1.494091	-8.143907	17.466126	11.079584	0.000000	0.000000	3.962186	1.925668	-20.686266	-219.516026	-157.099191	-143.008062	47.593122	83.847214	0.815386	-1.513162	0.626305	-21.480575	131.815218	0.288769	0.695672	-4.469055	-24.165571
6.983051	5.373891	15.080578	130.313462	0.125285	0.516876	1.045668	-2.042684	12.954873	-33.720057	20.654278	0.360485	52.774757	9.529746	0.000000	-3.182363	-12.175796	17.596920	19.327328	0.337326	51.718873	16.111971	0.000000	-1.154240	1.474802	2.174516	-2.143539	1.961486	2.310423	-1.896301	3.585833	2.310423	-1.319181	3.585833	1.902702	-1.071827	3.007415	1.766794	-0.659533	2.284468	1.630887	-8.244621	16.683250	12.094006	0.000000	0.000000	3.428200	3.181720	-20.538394	-219.345810	-155.006658	-142.139859	47.218437	83.778209	1.319932	-1.083071	-0.405153	-22.126908	134.197485	0.283768	0.735207	-6.457085	-24.137445
7.000000	5.156250	15.006114	128.821281	0.126612	0.517624	1.041583	-2.519483	12.862760	-31.945503	20.635847	0.360163	52.717333	8.850134	0.000000	-4.377692	-12.114439	16.023794	18.478536	0.322511	51.428250	16.060871	0.000000	-1.160995	1.406231	2.356492	-2.156084	1.870287	2.503773	-1.907399	3.419110	2.503773	-1.326901	3.419110	2.061931	-1.078100	2.867586	1.914650	-0.663393	2.178252	1.767369	-8.292871	15.907566	13.106103	0.000000	0.000000	2.823139	4.238652	-20.489442	-219.017078	-152.833362	-141.293694	46.846064	83.876749	1.627478	-0.378747	-1.086327	-22.584813	135.659732	0.283552	0.744499	-5.938619	-24.141554
7.016949	4.954143	14.875652	127.479715	0.127940	0.518325	1.037931	-2.903113	12.716786	-30.396024	20.623279	0.359944	52.650264	8.247230	0.000000	-5.401327	-11.975661	14.642621	17.698457	0.308896	51.128278	15.986510	0.000000	-1.160576	1.341106	2.514716	-2.155305	1.783671	2.671885	-1.906710	3.260765	2.671885	-1.326422	3.260765	2.200376	-1.077711	2.734783	2.043206	-0.663153	2.077373	1.886037	-8.289877	15.170858	13.986094	0.000000	0.000000	2.235446	5.025171	-20.505868	-218.542486	-150.633984	-140.519948	46.445654	84.148701	1.627857	0.637428	-1.477075	-22.850886	137.290321	0.282538	0.749449	-5.253735	-24.149012
7.033898	4.783849	14.674782	126.239988	0.129245	0.519004	1.034704	-3.190071	12.533256	-29.066703	20.588169	0.359331	52.555272	7.788571	0.000000	-6.237516	-11.769951	13.427741	16.999900	0.296704	50.824067	15.876692	0.000000	-1.152233	1.282131	2.650113	-2.139811	1.705235	2.815745	-1.893003	3.117374	2.815745	-1.316887	3.117374	2.318849	-1.069963	2.614522	2.153217	-0.658386	1.986022	1.987585	-8.230282	14.503727	14.739134	0.000000	0.000000	1.644443	5.489947	-20.518799	-217.819938	-148.420336	-139.633787	45.944060	84.593679	1.469200	1.949406	-1.628140	-22.899634	138.712935	0.283502	0.756643	-4.525798	-24.158467
7.050847	4.675299	14.393880	125.102519	0.130469	0.519617	1.031973	-3.327265	12.314655	-27.921124	20.567029	0.358962	52.430784	7.425083	0.000000	-6.838756	-11.519459	12.361758	16.399196	0.286220	50.528019	15.773556	0.000000	-1.132608	1.232771	2.755571	-2.103366	1.639585	2.927795	-1.860762	2.997359	2.927795	-1.294458	2.997359	2.411125	-1.051740	2.513866	2.238902	-0.647172	1.909562	2.066679	-8.090106	13.945350	15.325662	0.000000	0.000000	1.066636	5.648034	-20.414254	-216.787420	-146.187410	-138.416009	45.308506	85.210106	1.038041	3.331200	-1.578675	-22.728717	139.909097	0.285973	0.768432	-3.941430	-24.172424
7.067797	4.627118	14.041985	124.077081	0.131593	0.520151	1.029759	-3.327313	12.078227	-26.964359	20.547969	0.358630	52.278579	7.170915	0.000000	-7.205426	-11.228760	11.496067	15.909083	0.277666	50.244170	15.623965	0.000000	-1.103528	1.194211	2.830504	-2.049362	1.588300	3.007411	-1.812987	2.903604	3.007411	-1.261222	2.903604	2.476691	-1.024736	2.435234	2.299785	-0.630556	1.849832	2.122878	-7.882392	13.509150	15.742416	0.000000	0.000000	0.524429	5.508403	-20.159380	-215.467134	-143.987298	-136.967695	44.527662	85.991463	0.491326	4.663550	-1.343979	-22.362949	140.929348	0.289147	0.779723	-3.589714	-24.189163
7.084746	4.636866	13.619297	123.165095	0.132638	0.520575	1.028028	-3.186946	11.833964	-26.160201	20.534663	0.358397	52.105228	6.994762	0.000000	-7.334662	-10.909053	10.822608	15.536304	0.271160	49.984163	15.438355	0.000000	-1.065651	1.165049	2.875943	-1.979020	1.549515	3.055689	-1.750758	2.832699	3.055689	-1.217932	2.832699	2.516450	-0.989563	2.375767	2.336704	-0.608913	1.804660	2.156957	-7.611837	13.179264	15.995131	0.000000	0.000000	0.029958	5.116694	-19.747537	-213.926144	-141.859282	-135.477548	43.604683	86.922525	-0.022988	5.779588	-0.962630	-21.846328	141.823969	0.292516	0.790390	-3.611875	-24.205906
